<?xml version="1.0" encoding="UTF-8"?>
<svg id="Layer_2" data-name="Layer 2" xmlns="http://www.w3.org/2000/svg" viewBox="0 0 1141.12 1633.65">
  <defs>
    <style>
      .cls-1 {
        fill: #000;
        stroke-width: 0px;
      }
    </style>
  </defs>
  <g id="Layer_1-2" data-name="Layer 1">
    <g>
      <path class="cls-1" d="M1025.85,727.81c-6.65,44.48-11.96,26.81,38.54,46.73,38.39,12.11,31.67,8.58,16.72,46.27-28.24,68.12-58.99,104.33-169.13,203.46-86.92,81.2-99.03,103.68-159.64,287.99-97.99,321.39-108.58,321.39-160.72,321.39-47.84,0-63.25-5.27-166.86-322-63-166.2-81.28-191.43-159.44-261.56-147.33-131.79-179.26-175.69-228.45-288.72,8.37-15.93,25.71-1.96,37.51,2.28,76.43,31.57,199.06,17.95,221.92-75.44,2.11-7.78,5.24-11.21,13.34-11.74,15.79-1.04,31.6-1.95,47.41-2.65,8.99-.4,11.5,1.77,14.64,10.25,49.93,141.01,221.35,218.52,351.88,132.81,49.63-29.51,88.38-74.44,105.18-130.28,2.7-7.23,3.81-8.47,11.62-6.96,24.05,4.64,48.08,9.4,72.11,14.13,34,6.69,68,13.37,102,20.09,8.52,1.68,11.12,5.08,11.38,13.96Z"/>
      <path class="cls-1" d="M592.55,208.89c.86-52.19,15.66-95.26,51.24-129.69,26.59-25.74,58.9-39.48,95.5-43.54,22.62-2.51,45.08-.9,66.93,4.94,46.13,12.34,85.05,36.84,116.74,72.54,31.88,35.9,52.63,77.34,59.21,125.1,7.29,52.84-2.73,101.68-37.58,143.48-27.08,32.49-62.48,50.61-104.28,55.11-63.79,6.87-118.43-15.04-165.61-56.61-43.79-38.59-70.73-87.02-79.67-144.98-1.52-9.85-1.9-19.88-2.49-26.33ZM670.83,230.4c68.81,9.02,123.27,42.23,167.68,94.23,7.7-5.77,15.46-11.75,23.42-17.45,2.8-2.01,3.21-3.86,1.21-6.52-5.59-7.45-10.67-15.34-16.79-22.32-23.85-27.17-52.93-47.5-85.16-63.47-23.86-11.82-48.78-20.45-75.25-24.3-2.57-.37-3.99-.11-4.74,2.68-3.35,12.35-6.87,24.66-10.37,37.15Z"/>
      <path class="cls-1" d="M404.56,358.59c9.25,12.27,17.97,23.82,26.68,35.4,4.3,5.72,4.35,6.48-.59,11.29-7.16,6.97-14.59,13.68-21.7,20.7-3.29,3.25-5.97,1.68-8.83-.28-18.57-12.67-37.2-25.28-55.7-38.05-69.78-48.19-139.51-96.43-209.27-144.65-.68-.47-1.39-.93-2.09-1.37-5.96-3.77-6.07-4.17-2.99-10.77,13.05-27.95,29.67-53.64,49.71-77.03,54.71-63.88,121.19-110.82,200.96-138.2C414.28,4.12,448.75-2.2,484.39.7c29.84,2.43,57.32,11.07,78.72,33.31,21.43,22.26,28.04,49.72,26.13,79.69-2.5,39.22-17.97,73.91-38.91,106.31-36.91,57.14-85.72,102.03-143.7,137.22-.57.34-1.11.73-2.08,1.36ZM301.2,269.7c1.89-2.03,3.21-3.51,4.6-4.93,49.35-50.38,107.44-82.98,179.1-87.88,2.62-.18,3.51-1.07,3.37-3.62-.49-9.31-.99-18.63-1.23-27.95-.09-3.57-1.56-4.68-4.91-4.16-9.7,1.48-19.59,2.17-29.1,4.43-60.8,14.43-113.82,43.55-159.73,85.76-5.93,5.45-11.19,11.62-17,17.71,8.66,7.17,16.58,13.73,24.92,20.63Z"/>
      <path class="cls-1" d="M360.02,579.21c.55,20.15.95,40.31,1.73,60.46.24,6.25-2.48,7.81-10.17,7.52-14.05-.52-28.1.63-41.91,3.29-7.34,1.42-10.03.89-10.3-5.08-1.78-39.11-3.79-78.2-5.81-117.3-.19-3.64-.7-7.3-1.48-10.86-1.98-9.06-8.84-13.9-17.75-12.79-9.86,1.22-16.58,8.34-16.42,17.51.5,27.32,1.12,54.64,1.51,81.96.18,12.64,1.6,25.56-.39,37.9-7.33,45.35-34.37,75.09-77.16,89.8-67.33,23.15-147.19-13.1-169.48-88.39C2.29,609.09-1,574.37.25,539.01c2.51-70.85,19.37-138.28,48.23-202.87,3.58-8.02,4.63-8.46,12.81-5.77,15.18,5,30.4,9.9,45.59,14.9,6.97,2.29,7.67,3.83,4.42,10.55-21.85,45.28-35.12,93.1-41.99,142.75-3.36,24.31-5.05,48.73-.56,73.14.36,1.97.97,3.89,1.25,5.86.62,4.28,2.82,7.03,7.17,7.81,4.74.86,9.16.04,12.19-3.85,1.27-1.64,1.96-4.29,1.81-6.4-4-54.62,4.31-107.02,28.75-156.32,11.66-23.53,26.83-44.54,48.77-59.8,14.12-9.83,29.51-16.56,47.09-15.15,14.24,1.14,26.9,7.34,38.65,15.17,29.15,19.43,51.69,45.19,71.18,74,15.66,23.15,27.49,47.81,31.87,75.73.6,3.81.9,7.66,1.03,11.51.62,19.64,1.04,39.28,1.54,58.92,0,0-.02,0-.02,0Z"/>
      <path class="cls-1" d="M847.62,643c-8.21,0-7.93-.74-7.78-9.04.34-18.1.52-36.29-.85-54.32-1.67-21.93-5.69-43.64-13.36-64.38-2.57-6.94-6.3-13.55-10.2-19.88-3.86-6.27-3.61-8,3.46-10.19,71.08-22.02,142.14-44.11,213.3-65.88,5.18-1.58,5.54-4.15,4.9-8.3-2.42-15.8-7.75-30.67-14.89-44.86-3.42-6.81-7.71-13.2-11.88-19.6-3-4.61-2.52-7.02,2.67-8.47,17.15-4.8,34.34-9.45,51.5-14.23,3.14-.88,4.41.73,5.8,3.17,20.83,36.49,36.72,75.04,48.44,115.35,16.26,55.93,24.24,112.95,22,171.21-1.56,40.4-8.26,79.83-25.18,116.96-3.1,6.8-7.04,13.21-10.6,19.8-1.56,2.9-3.72,3.64-7.06,2.88-14.28-3.26-28.63-6.22-42.95-9.35-5.85-1.28-6.26-2.28-3.84-7.88,11.2-25.83,16.9-52.92,18.19-80.95.69-15.04.43-15.16-14.29-14.97-33.48.43-66.96.98-100.45,1.48"/>
    </g>
  </g>
</svg>